<svg width="84" height="81" viewBox="0 0 84 81" fill="none" xmlns="http://www.w3.org/2000/svg">
<g filter="url(#filter0_d_301_140)">
<path d="M4.584 69.376C4.70667 70.3627 5.19733 70.856 6.056 70.856C6.32267 70.856 6.53333 70.768 6.688 70.592C6.848 70.416 6.93067 70.184 6.936 69.896C6.936 69.688 6.864 69.5067 6.72 69.352C6.58133 69.192 6.38933 69.064 6.144 68.968L5.328 68.64C5.04 68.5227 4.82133 68.3653 4.672 68.168C4.52267 67.9707 4.448 67.7387 4.448 67.472C4.448 67.232 4.504 67.0107 4.616 66.808C4.728 66.6053 4.896 66.4453 5.12 66.328C5.344 66.2053 5.61333 66.144 5.928 66.144C6.09867 66.144 6.24267 66.16 6.36 66.192C6.48267 66.2187 6.60267 66.2533 6.72 66.296C6.83733 66.3333 6.91733 66.36 6.96 66.376C7.04533 66.408 7.11733 66.424 7.176 66.424C7.272 66.424 7.34933 66.4133 7.408 66.392C7.392 66.52 7.384 66.72 7.384 66.992C7.384 67.152 7.38667 67.2667 7.392 67.336C7.39733 67.4053 7.41067 67.4693 7.432 67.528H7.224C7.224 67.1813 7.10933 66.9013 6.88 66.688C6.656 66.4693 6.37333 66.36 6.032 66.36C5.75467 66.36 5.53067 66.4373 5.36 66.592C5.18933 66.7413 5.104 66.952 5.104 67.224C5.104 67.4 5.16533 67.56 5.288 67.704C5.41067 67.8427 5.57867 67.9547 5.792 68.04L6.528 68.336C6.93333 68.5013 7.22133 68.6853 7.392 68.888C7.568 69.0853 7.656 69.3413 7.656 69.656C7.656 69.9333 7.58667 70.1813 7.448 70.4C7.31467 70.6133 7.13067 70.7813 6.896 70.904C6.66667 71.0213 6.416 71.08 6.144 71.08C5.97867 71.08 5.83467 71.072 5.712 71.056C5.58933 71.0453 5.45867 71.0187 5.32 70.976C5.03733 70.896 4.82667 70.856 4.688 70.856C4.64 70.856 4.58933 70.8613 4.536 70.872C4.48267 70.8827 4.44267 70.8907 4.416 70.896C4.43733 70.784 4.448 70.5627 4.448 70.232C4.448 69.8 4.42667 69.5147 4.384 69.376H4.584ZM11.3931 70.792V71H10.2571C10.2625 70.9627 10.2678 70.9147 10.2731 70.856C10.2838 70.792 10.2891 70.7413 10.2891 70.704L10.3051 70.392C10.1878 70.6213 10.0358 70.7867 9.84913 70.888C9.66779 70.9893 9.44913 71.04 9.19313 71.04C8.85713 71.04 8.60113 70.9653 8.42513 70.816C8.25446 70.6613 8.16913 70.4347 8.16913 70.136C8.16913 69.7253 8.33979 69.424 8.68113 69.232C9.02779 69.0347 9.56913 68.936 10.3051 68.936V68.472C10.3051 68.2213 10.2465 68.0427 10.1291 67.936C10.0118 67.8293 9.82246 67.776 9.56113 67.776C9.15579 67.776 8.95312 67.888 8.95312 68.112C8.95312 68.1547 8.96379 68.2053 8.98513 68.264C9.01179 68.3173 9.02513 68.368 9.02513 68.416C9.02513 68.5067 8.99579 68.576 8.93713 68.624C8.87846 68.6667 8.80379 68.688 8.71313 68.688C8.60113 68.688 8.51313 68.6533 8.44913 68.584C8.39046 68.5147 8.36113 68.424 8.36113 68.312C8.36113 68.088 8.47846 67.9067 8.71313 67.768C8.94779 67.6293 9.26246 67.56 9.65713 67.56C10.5478 67.56 10.9931 67.936 10.9931 68.688V70.656C10.9931 70.7573 11.0278 70.808 11.0971 70.808L11.3931 70.792ZM9.43313 70.752C9.66779 70.752 9.86779 70.656 10.0331 70.464C10.1985 70.2667 10.2891 70.0133 10.3051 69.704V69.152C9.80379 69.152 9.44379 69.2267 9.22513 69.376C9.00646 69.52 8.89713 69.752 8.89713 70.072C8.89713 70.296 8.94246 70.4667 9.03313 70.584C9.12913 70.696 9.26246 70.752 9.43313 70.752ZM17.8027 70.792V71H16.2427V70.792L16.6107 70.808C16.68 70.792 16.7147 70.7413 16.7147 70.656V68.84C16.7147 68.584 16.7014 68.3867 16.6747 68.248C16.6534 68.1093 16.6054 68.0027 16.5307 67.928C16.456 67.8533 16.3387 67.816 16.1787 67.816C15.896 67.816 15.6587 67.944 15.4667 68.2C15.28 68.456 15.1787 68.7947 15.1627 69.216V70.656C15.1627 70.7573 15.1974 70.808 15.2667 70.808L15.6427 70.792V71H14.0027V70.792L14.3707 70.808C14.44 70.792 14.4747 70.7413 14.4747 70.656V68.824C14.4747 68.5467 14.4587 68.3387 14.4267 68.2C14.4 68.0613 14.3467 67.9653 14.2667 67.912C14.192 67.8533 14.072 67.824 13.9067 67.824C13.6347 67.824 13.4107 67.9467 13.2347 68.192C13.0587 68.4373 12.9574 68.7573 12.9307 69.152L12.9227 70.656C12.9227 70.7573 12.9574 70.808 13.0267 70.808L13.3947 70.792V71H11.8347V70.792L12.1307 70.808C12.2 70.792 12.2347 70.7413 12.2347 70.656V67.992C12.2347 67.9493 12.224 67.912 12.2027 67.88C12.1867 67.848 12.1627 67.832 12.1307 67.832L11.8347 67.848V67.64H12.9707C12.944 67.72 12.9307 67.8107 12.9307 67.912V68.352C13.0107 68.1173 13.152 67.928 13.3547 67.784C13.5574 67.6347 13.8027 67.56 14.0907 67.56C14.3947 67.56 14.632 67.624 14.8027 67.752C14.9787 67.88 15.0907 68.1173 15.1387 68.464C15.2294 68.1707 15.3787 67.9467 15.5867 67.792C15.8 67.6373 16.048 67.56 16.3307 67.56C16.7094 67.56 16.9814 67.6507 17.1467 67.832C17.3174 68.008 17.4027 68.296 17.4027 68.696V70.656C17.4027 70.7573 17.4374 70.808 17.5067 70.808L17.8027 70.792ZM12.9227 69.376V69.44V69.376ZM18.1289 65.16H19.2169V68.264C19.4143 67.7947 19.7636 67.56 20.2649 67.56C21.1876 67.56 21.6489 68.1493 21.6489 69.328C21.6489 69.9093 21.5236 70.3467 21.2729 70.64C21.0223 70.9333 20.6409 71.08 20.1289 71.08C19.8676 71.08 19.6703 71.0373 19.5369 70.952C19.4036 70.8667 19.2756 70.744 19.1529 70.584C19.1316 70.536 19.0836 70.512 19.0089 70.512C18.9343 70.512 18.8783 70.56 18.8409 70.656C18.8036 70.752 18.7849 70.88 18.7849 71.04H18.5209V65.504C18.5209 65.3973 18.4863 65.344 18.4169 65.344L18.1289 65.36V65.16ZM19.2329 69.528C19.2329 69.9493 19.3023 70.2773 19.4409 70.512C19.5796 70.7467 19.8089 70.864 20.1289 70.864C20.3369 70.864 20.4969 70.8187 20.6089 70.728C20.7209 70.632 20.8009 70.4747 20.8489 70.256C20.8969 70.0373 20.9209 69.728 20.9209 69.328C20.9209 68.912 20.8996 68.5973 20.8569 68.384C20.8196 68.1653 20.7476 68.0107 20.6409 67.92C20.5343 67.824 20.3796 67.776 20.1769 67.776C19.8783 67.776 19.6463 67.904 19.4809 68.16C19.3156 68.4107 19.2329 68.7547 19.2329 69.192V69.528ZM25.2525 70.792V71H24.1165C24.1218 70.9627 24.1272 70.9147 24.1325 70.856C24.1432 70.792 24.1485 70.7413 24.1485 70.704L24.1645 70.392C24.0472 70.6213 23.8952 70.7867 23.7085 70.888C23.5272 70.9893 23.3085 71.04 23.0525 71.04C22.7165 71.04 22.4605 70.9653 22.2845 70.816C22.1138 70.6613 22.0285 70.4347 22.0285 70.136C22.0285 69.7253 22.1992 69.424 22.5405 69.232C22.8872 69.0347 23.4285 68.936 24.1645 68.936V68.472C24.1645 68.2213 24.1058 68.0427 23.9885 67.936C23.8712 67.8293 23.6818 67.776 23.4205 67.776C23.0152 67.776 22.8125 67.888 22.8125 68.112C22.8125 68.1547 22.8232 68.2053 22.8445 68.264C22.8712 68.3173 22.8845 68.368 22.8845 68.416C22.8845 68.5067 22.8552 68.576 22.7965 68.624C22.7378 68.6667 22.6632 68.688 22.5725 68.688C22.4605 68.688 22.3725 68.6533 22.3085 68.584C22.2498 68.5147 22.2205 68.424 22.2205 68.312C22.2205 68.088 22.3378 67.9067 22.5725 67.768C22.8072 67.6293 23.1218 67.56 23.5165 67.56C24.4072 67.56 24.8525 67.936 24.8525 68.688V70.656C24.8525 70.7573 24.8872 70.808 24.9565 70.808L25.2525 70.792ZM23.2925 70.752C23.5272 70.752 23.7272 70.656 23.8925 70.464C24.0578 70.2667 24.1485 70.0133 24.1645 69.704V69.152C23.6632 69.152 23.3032 69.2267 23.0845 69.376C22.8658 69.52 22.7565 69.752 22.7565 70.072C22.7565 70.296 22.8018 70.4667 22.8925 70.584C22.9885 70.696 23.1218 70.752 23.2925 70.752ZM27.5719 70.768L27.9159 70.784C27.9959 70.784 28.0359 70.7253 28.0359 70.608V66.616C28.0359 66.568 28.0225 66.528 27.9959 66.496C27.9692 66.464 27.9319 66.448 27.8839 66.448L27.5719 66.464V66.224H29.3719C30.2252 66.224 30.8545 66.4107 31.2599 66.784C31.6705 67.152 31.8759 67.76 31.8759 68.608C31.8759 70.2027 31.0732 71 29.4679 71H27.5719V70.768ZM28.7799 70.672C28.7799 70.7413 28.8119 70.776 28.8759 70.776H29.2359C29.6839 70.776 30.0385 70.7067 30.2999 70.568C30.5665 70.424 30.7585 70.1947 30.8759 69.88C30.9985 69.5653 31.0599 69.144 31.0599 68.616C31.0599 68.088 30.9985 67.6667 30.8759 67.352C30.7585 67.0373 30.5665 66.808 30.2999 66.664C30.0332 66.52 29.6785 66.448 29.2359 66.448H28.8759C28.8119 66.448 28.7799 66.4827 28.7799 66.552V70.672ZM33.1243 65.856C33.2523 65.856 33.3563 65.8907 33.4363 65.96C33.5216 66.0293 33.5643 66.12 33.5643 66.232C33.5643 66.3547 33.5243 66.4507 33.4443 66.52C33.3643 66.584 33.2576 66.616 33.1243 66.616C32.9963 66.616 32.8923 66.584 32.8123 66.52C32.7323 66.4507 32.6923 66.3547 32.6923 66.232C32.6923 66.12 32.7323 66.0293 32.8123 65.96C32.8923 65.8907 32.9963 65.856 33.1243 65.856ZM33.5243 70.656C33.5243 70.7573 33.5589 70.808 33.6283 70.808L33.9163 70.792V71H32.4363V70.792L32.7323 70.808C32.8016 70.808 32.8363 70.7573 32.8363 70.656V67.992C32.8363 67.9013 32.8043 67.848 32.7403 67.832L32.4443 67.848V67.64H33.5243V70.656ZM37.3153 67.424C37.262 67.424 37.1766 67.4533 37.0593 67.512C36.9473 67.5707 36.8566 67.6427 36.7873 67.728C37.182 67.9253 37.3793 68.2693 37.3793 68.76C37.3793 69.112 37.254 69.4 37.0033 69.624C36.7526 69.8427 36.422 69.952 36.0113 69.952C35.7873 69.952 35.5793 69.912 35.3873 69.832C35.206 69.944 35.1153 70.0613 35.1153 70.184C35.1153 70.3813 35.2646 70.48 35.5633 70.48H36.6273C37.022 70.48 37.318 70.5653 37.5153 70.736C37.718 70.9067 37.8193 71.192 37.8193 71.592C37.8193 71.864 37.7393 72.104 37.5793 72.312C37.4246 72.52 37.2033 72.68 36.9153 72.792C36.6273 72.904 36.294 72.96 35.9153 72.96C35.446 72.96 35.0833 72.8693 34.8273 72.688C34.5766 72.5067 34.4513 72.2427 34.4513 71.896C34.4513 71.6827 34.51 71.5013 34.6273 71.352C34.75 71.2027 34.9313 71.072 35.1713 70.96C34.7766 70.8853 34.5793 70.7093 34.5793 70.432C34.5793 70.3307 34.606 70.2453 34.6593 70.176C34.718 70.1013 34.8166 70.008 34.9553 69.896L35.1713 69.72C35.0113 69.6187 34.8833 69.488 34.7873 69.328C34.6966 69.1627 34.6513 68.9733 34.6513 68.76C34.6513 68.4027 34.7766 68.1147 35.0273 67.896C35.2833 67.672 35.6113 67.56 36.0113 67.56C36.2353 67.56 36.438 67.592 36.6193 67.656C36.7526 67.4747 36.9153 67.3147 37.1073 67.176C37.3046 67.032 37.4566 66.96 37.5633 66.96C37.6966 66.96 37.79 66.9973 37.8433 67.072C37.902 67.1413 37.9313 67.2213 37.9313 67.312C37.9313 67.3813 37.9073 67.448 37.8593 67.512C37.8113 67.576 37.75 67.608 37.6753 67.608C37.6113 67.608 37.5633 67.6 37.5313 67.584C37.4993 67.5627 37.4646 67.5307 37.4273 67.488C37.3953 67.4453 37.358 67.424 37.3153 67.424ZM36.0113 69.768C36.262 69.768 36.4326 69.6933 36.5233 69.544C36.6193 69.3893 36.6673 69.128 36.6673 68.76C36.6673 68.4027 36.6193 68.1493 36.5233 68C36.4273 67.8507 36.2566 67.776 36.0113 67.776C35.766 67.776 35.5953 67.848 35.4993 67.992C35.4086 68.1307 35.3633 68.3867 35.3633 68.76C35.3633 69.0213 35.382 69.224 35.4193 69.368C35.4566 69.512 35.5206 69.616 35.6113 69.68C35.7073 69.7387 35.8406 69.768 36.0113 69.768ZM35.7073 71C35.5526 71 35.4086 71.0427 35.2753 71.128C35.142 71.2133 35.0353 71.3227 34.9553 71.456C34.8806 71.5947 34.8433 71.736 34.8433 71.88C34.8433 72.1413 34.9313 72.352 35.1073 72.512C35.2886 72.672 35.5553 72.752 35.9073 72.752C36.35 72.752 36.6913 72.6507 36.9313 72.448C37.1713 72.2453 37.2913 71.9787 37.2913 71.648C37.2913 71.4293 37.2273 71.2667 37.0993 71.16C36.9766 71.0533 36.7793 71 36.5073 71H35.7073ZM38.843 65.856C38.971 65.856 39.075 65.8907 39.155 65.96C39.2403 66.0293 39.283 66.12 39.283 66.232C39.283 66.3547 39.243 66.4507 39.163 66.52C39.083 66.584 38.9763 66.616 38.843 66.616C38.715 66.616 38.611 66.584 38.531 66.52C38.451 66.4507 38.411 66.3547 38.411 66.232C38.411 66.12 38.451 66.0293 38.531 65.96C38.611 65.8907 38.715 65.856 38.843 65.856ZM39.243 70.656C39.243 70.7573 39.2777 70.808 39.347 70.808L39.635 70.792V71H38.155V70.792L38.451 70.808C38.5203 70.808 38.555 70.7573 38.555 70.656V67.992C38.555 67.9013 38.523 67.848 38.459 67.832L38.163 67.848V67.64H39.243V70.656ZM41.2821 67.64H42.1621V67.84H41.2821V70.296C41.2821 70.4987 41.3061 70.6373 41.3541 70.712C41.4021 70.7813 41.4874 70.816 41.6101 70.816C41.6901 70.816 41.7727 70.7867 41.8581 70.728C41.9434 70.664 41.9994 70.5867 42.0261 70.496L42.1941 70.6C42.0874 70.8987 41.8047 71.048 41.3461 71.048C41.0741 71.048 40.8794 70.984 40.7621 70.856C40.6501 70.728 40.5941 70.52 40.5941 70.232V67.84H40.1141V67.64C40.3274 67.64 40.4901 67.6213 40.6021 67.584C40.7141 67.5413 40.8021 67.464 40.8661 67.352C40.9354 67.24 40.9994 67.064 41.0581 66.824H41.2821V67.64ZM45.8619 70.792V71H44.7259C44.7312 70.9627 44.7365 70.9147 44.7419 70.856C44.7525 70.792 44.7579 70.7413 44.7579 70.704L44.7739 70.392C44.6565 70.6213 44.5045 70.7867 44.3179 70.888C44.1365 70.9893 43.9179 71.04 43.6619 71.04C43.3259 71.04 43.0699 70.9653 42.8939 70.816C42.7232 70.6613 42.6379 70.4347 42.6379 70.136C42.6379 69.7253 42.8085 69.424 43.1499 69.232C43.4965 69.0347 44.0379 68.936 44.7739 68.936V68.472C44.7739 68.2213 44.7152 68.0427 44.5979 67.936C44.4805 67.8293 44.2912 67.776 44.0299 67.776C43.6245 67.776 43.4219 67.888 43.4219 68.112C43.4219 68.1547 43.4325 68.2053 43.4539 68.264C43.4805 68.3173 43.4939 68.368 43.4939 68.416C43.4939 68.5067 43.4645 68.576 43.4059 68.624C43.3472 68.6667 43.2725 68.688 43.1819 68.688C43.0699 68.688 42.9819 68.6533 42.9179 68.584C42.8592 68.5147 42.8299 68.424 42.8299 68.312C42.8299 68.088 42.9472 67.9067 43.1819 67.768C43.4165 67.6293 43.7312 67.56 44.1259 67.56C45.0165 67.56 45.4619 67.936 45.4619 68.688V70.656C45.4619 70.7573 45.4965 70.808 45.5659 70.808L45.8619 70.792ZM43.9019 70.752C44.1365 70.752 44.3365 70.656 44.5019 70.464C44.6672 70.2667 44.7579 70.0133 44.7739 69.704V69.152C44.2725 69.152 43.9125 69.2267 43.6939 69.376C43.4752 69.52 43.3659 69.752 43.3659 70.072C43.3659 70.296 43.4112 70.4667 43.5019 70.584C43.5979 70.696 43.7312 70.752 43.9019 70.752ZM46.3034 70.792L46.5994 70.808C46.6688 70.792 46.7034 70.7413 46.7034 70.656V65.504C46.7034 65.4133 46.6714 65.3573 46.6074 65.336L46.3114 65.352V65.152H47.3914V70.656C47.3914 70.7573 47.4261 70.808 47.4954 70.808L47.7834 70.792V71H46.3034V70.792ZM50.1803 68.64C50.1803 67.856 50.391 67.2453 50.8123 66.808C51.239 66.3653 51.8283 66.144 52.5803 66.144C52.7776 66.144 52.9403 66.16 53.0683 66.192C53.2016 66.224 53.3643 66.272 53.5563 66.336C53.6896 66.384 53.8043 66.4213 53.9003 66.448C54.0016 66.4747 54.1163 66.488 54.2443 66.488C54.223 66.6533 54.2123 66.8533 54.2123 67.088C54.2123 67.2 54.215 67.3013 54.2203 67.392C54.2256 67.4773 54.2336 67.5253 54.2443 67.536H54.0523C54.0043 67.3173 53.9056 67.1173 53.7563 66.936C53.607 66.7547 53.4256 66.6107 53.2123 66.504C52.999 66.3973 52.775 66.344 52.5403 66.344C52.2256 66.344 51.951 66.44 51.7163 66.632C51.487 66.8187 51.3083 67.0853 51.1803 67.432C51.0576 67.7787 50.9963 68.1813 50.9963 68.64C50.9963 69.072 51.0603 69.4587 51.1883 69.8C51.3216 70.136 51.5083 70.3973 51.7483 70.584C51.9883 70.7707 52.2656 70.864 52.5803 70.864C52.9483 70.864 53.2736 70.752 53.5563 70.528C53.839 70.2987 54.0176 70.0107 54.0923 69.664H54.3163C54.2843 69.9147 54.2683 70.1413 54.2683 70.344C54.2683 70.4987 54.2763 70.624 54.2923 70.72H54.2443C54.1696 70.72 54.0816 70.7333 53.9803 70.76C53.879 70.7813 53.7963 70.8027 53.7323 70.824C53.6736 70.8453 53.631 70.8587 53.6043 70.864C53.4016 70.9333 53.2176 70.9867 53.0523 71.024C52.887 71.0613 52.7163 71.08 52.5403 71.08C52.0603 71.08 51.6416 70.9813 51.2843 70.784C50.9323 70.5867 50.6603 70.3067 50.4683 69.944C50.2763 69.576 50.1803 69.1413 50.1803 68.64ZM54.9597 69.312C54.9597 68.768 55.0957 68.3413 55.3677 68.032C55.6397 67.7173 56.0397 67.56 56.5677 67.56C57.0957 67.56 57.4957 67.7173 57.7677 68.032C58.0397 68.3413 58.1757 68.768 58.1757 69.312C58.1757 69.8667 58.0397 70.3013 57.7677 70.616C57.4957 70.9253 57.0957 71.08 56.5677 71.08C56.0397 71.08 55.6397 70.9253 55.3677 70.616C55.0957 70.3013 54.9597 69.8667 54.9597 69.312ZM55.6877 69.328C55.6877 69.8667 55.7544 70.2587 55.8877 70.504C56.0264 70.744 56.253 70.864 56.5677 70.864C56.8824 70.864 57.1064 70.744 57.2397 70.504C57.3784 70.2587 57.4477 69.8667 57.4477 69.328C57.4477 68.784 57.3784 68.3893 57.2397 68.144C57.1064 67.8987 56.8824 67.776 56.5677 67.776C56.253 67.776 56.0264 67.8987 55.8877 68.144C55.7544 68.3893 55.6877 68.784 55.6877 69.328ZM62.4931 70.792V71H60.9331V70.792L61.3011 70.808C61.3705 70.792 61.4051 70.7413 61.4051 70.656V68.84C61.4051 68.584 61.3918 68.3867 61.3651 68.248C61.3438 68.1093 61.2958 68.0027 61.2211 67.928C61.1465 67.8533 61.0291 67.816 60.8691 67.816C60.5651 67.816 60.3171 67.9467 60.1251 68.208C59.9385 68.464 59.8371 68.8107 59.8211 69.248V70.656C59.8211 70.7573 59.8558 70.808 59.9251 70.808L60.2931 70.792V71H58.7331V70.792L59.0291 70.808C59.0985 70.792 59.1331 70.7413 59.1331 70.656V67.992C59.1331 67.9013 59.0985 67.848 59.0291 67.832L58.7331 67.848V67.64H59.8611C59.8345 67.72 59.8211 67.8133 59.8211 67.92V68.36C59.9331 68.1093 60.0931 67.9147 60.3011 67.776C60.5091 67.632 60.7491 67.56 61.0211 67.56C61.3998 67.56 61.6718 67.6507 61.8371 67.832C62.0078 68.008 62.0931 68.296 62.0931 68.696V70.656C62.0931 70.7573 62.1278 70.808 62.1971 70.808L62.4931 70.792ZM64.5123 67.56C64.7309 67.56 64.9336 67.5973 65.1203 67.672C65.3123 67.7413 65.4643 67.84 65.5763 67.968C65.6936 68.0907 65.7523 68.2267 65.7523 68.376C65.7523 68.488 65.7203 68.584 65.6563 68.664C65.5976 68.7387 65.5016 68.776 65.3683 68.776C65.1816 68.776 65.0883 68.696 65.0883 68.536C65.0883 68.4933 65.0989 68.44 65.1203 68.376C65.1469 68.312 65.1603 68.2507 65.1603 68.192C65.1603 68.0587 65.0989 67.9573 64.9763 67.888C64.8536 67.8133 64.7069 67.776 64.5363 67.776C64.2589 67.776 64.0483 67.888 63.9043 68.112C63.7603 68.336 63.6883 68.72 63.6883 69.264C63.6883 69.8027 63.7629 70.2053 63.9123 70.472C64.0616 70.7333 64.2883 70.864 64.5923 70.864C64.8589 70.864 65.0963 70.7893 65.3043 70.64C65.5176 70.4907 65.6563 70.28 65.7203 70.008L65.9123 70.152C65.8163 70.44 65.6509 70.6667 65.4163 70.832C65.1869 70.9973 64.8989 71.08 64.5523 71.08C64.0509 71.08 63.6563 70.928 63.3683 70.624C63.0856 70.3147 62.9443 69.8907 62.9443 69.352C62.9443 68.9893 63.0083 68.6747 63.1363 68.408C63.2696 68.136 63.4536 67.928 63.6883 67.784C63.9283 67.6347 64.2029 67.56 64.5123 67.56ZM67.9427 67.56C68.364 67.56 68.7027 67.696 68.9587 67.968C69.22 68.2347 69.356 68.6027 69.3667 69.072V69.304H67.0627C67.0627 69.7893 67.1454 70.1627 67.3107 70.424C67.4814 70.68 67.7347 70.8107 68.0707 70.816C68.3374 70.816 68.5614 70.7493 68.7427 70.616C68.9294 70.4827 69.0654 70.3173 69.1507 70.12L69.3347 70.256C69.228 70.512 69.0467 70.7147 68.7907 70.864C68.54 71.008 68.2627 71.08 67.9587 71.08C66.876 71.08 66.3347 70.496 66.3347 69.328C66.3347 68.7467 66.4707 68.3067 66.7427 68.008C67.0147 67.7093 67.4147 67.56 67.9427 67.56ZM67.9427 67.776C67.644 67.776 67.4227 67.8987 67.2787 68.144C67.14 68.3893 67.0707 68.7093 67.0707 69.104H68.5267C68.58 69.104 68.62 69.0853 68.6467 69.048C68.6734 69.0107 68.6867 68.9413 68.6867 68.84C68.6867 68.4773 68.628 68.2107 68.5107 68.04C68.3987 67.864 68.2094 67.776 67.9427 67.776ZM71.9444 67.56C72.4031 67.56 72.7471 67.712 72.9764 68.016C73.2058 68.3147 73.3204 68.752 73.3204 69.328C73.3204 69.9147 73.1951 70.3547 72.9444 70.648C72.6991 70.936 72.3178 71.08 71.8004 71.08C71.5818 71.08 71.3924 71.0453 71.2324 70.976C71.0778 70.9013 70.9631 70.7947 70.8884 70.656V72.56C70.8884 72.6667 70.9231 72.72 70.9924 72.72L71.4884 72.704V72.912H69.8404V72.704L70.0964 72.72C70.1658 72.7147 70.2004 72.6613 70.2004 72.56V67.992C70.2004 67.8853 70.1658 67.832 70.0964 67.832L69.8084 67.848V67.64H70.9204C70.8991 67.7733 70.8884 67.9093 70.8884 68.048V68.28C70.9631 68.0507 71.0911 67.8747 71.2724 67.752C71.4538 67.624 71.6778 67.56 71.9444 67.56ZM71.8564 67.776C71.5578 67.776 71.3231 67.9067 71.1524 68.168C70.9871 68.424 70.9044 68.7653 70.9044 69.192V69.528C70.9044 69.992 70.9791 70.3307 71.1284 70.544C71.2831 70.7573 71.5071 70.864 71.8004 70.864C72.0084 70.864 72.1684 70.8187 72.2804 70.728C72.3924 70.632 72.4724 70.4747 72.5204 70.256C72.5684 70.0373 72.5924 69.728 72.5924 69.328C72.5924 68.928 72.5711 68.6187 72.5284 68.4C72.4911 68.1813 72.4191 68.024 72.3124 67.928C72.2058 67.8267 72.0538 67.776 71.8564 67.776ZM74.9696 67.64H75.8496V67.84H74.9696V70.296C74.9696 70.4987 74.9936 70.6373 75.0416 70.712C75.0896 70.7813 75.1749 70.816 75.2976 70.816C75.3776 70.816 75.4602 70.7867 75.5456 70.728C75.6309 70.664 75.6869 70.5867 75.7136 70.496L75.8816 70.6C75.7749 70.8987 75.4922 71.048 75.0336 71.048C74.7616 71.048 74.5669 70.984 74.4496 70.856C74.3376 70.728 74.2816 70.52 74.2816 70.232V67.84H73.8016V67.64C74.0149 67.64 74.1776 67.6213 74.2896 67.584C74.4016 67.5413 74.4896 67.464 74.5536 67.352C74.6229 67.24 74.6869 67.064 74.7456 66.824H74.9696V67.64ZM76.5014 69.864L76.7094 69.848C76.7094 70.0453 76.7627 70.2213 76.8694 70.376C76.976 70.5307 77.1174 70.6507 77.2934 70.736C77.4694 70.8213 77.6614 70.864 77.8694 70.864C78.0827 70.864 78.248 70.8107 78.3654 70.704C78.4827 70.592 78.5414 70.4427 78.5414 70.256C78.5414 70.1067 78.4987 69.984 78.4134 69.888C78.328 69.792 78.184 69.7147 77.9814 69.656L77.2134 69.44C77 69.376 76.832 69.2693 76.7094 69.12C76.5867 68.9653 76.5254 68.776 76.5254 68.552C76.5254 68.2587 76.6347 68.0213 76.8534 67.84C77.072 67.6533 77.3707 67.56 77.7494 67.56C77.856 67.56 77.9494 67.568 78.0294 67.584C78.1147 67.6 78.2187 67.6267 78.3414 67.664C78.5067 67.712 78.6294 67.736 78.7094 67.736C78.7894 67.736 78.864 67.7147 78.9334 67.672L78.8854 68.584H78.7094C78.7094 68.3707 78.624 68.184 78.4534 68.024C78.288 67.8587 78.0614 67.776 77.7734 67.776C77.5707 67.776 77.4107 67.8293 77.2934 67.936C77.1814 68.0427 77.1254 68.1787 77.1254 68.344C77.1254 68.6053 77.2907 68.7813 77.6214 68.872L78.3894 69.088C78.6614 69.1627 78.8534 69.2747 78.9654 69.424C79.0774 69.568 79.1334 69.7573 79.1334 69.992C79.1334 70.3387 79.0107 70.608 78.7654 70.8C78.52 70.9867 78.2 71.08 77.8054 71.08C77.6934 71.08 77.576 71.0667 77.4534 71.04C77.336 71.0187 77.1547 70.9733 76.9094 70.904C76.8294 70.8827 76.7574 70.872 76.6934 70.872C76.5867 70.872 76.5094 70.888 76.4614 70.92L76.5014 69.864Z" fill="white"/>
<path d="M17.5835 10.3502C19.6297 11.8488 21.9373 13.1154 24.4182 14.2072C32.6961 10.6231 51.4025 7.88069 61.2542 6.62717V12.8817C52.692 13.5861 40.1437 15.446 35.4009 16.5573L51.7506 20.3702C54.3721 20.076 64.1567 18.999 66.7798 18.8306C66.7798 10.1573 66.7798 8.86946 66.7798 0C54.8264 0.236977 26.7095 4.362 17.5835 10.3502Z" fill="white"/>
<path d="M17.5835 10.3502V17.4856C28.0284 25.3908 50.9449 25.5493 66.1947 32.3154C66.2176 32.2893 66.2438 32.2631 66.2666 32.2386V25.4055C54.6842 20.0776 30.7267 19.9763 17.5835 10.3502Z" fill="white"/>
<path d="M62.4913 35.3308C62.4913 35.3308 65.0262 33.5935 66.1947 32.3154C63.8543 31.276 61.3342 30.3935 58.703 29.6155C56.8104 30.2774 51.5839 31.3561 50.4644 31.5833C55.807 32.3449 59.2815 33.8958 62.4913 35.3308Z" fill="white"/>
<path d="M66.1947 45.6515C64.1502 44.1544 61.8425 42.8862 59.3616 41.7945C51.0838 45.3786 32.3757 48.1226 22.5256 49.3761V43.1199C31.0862 42.4155 43.6362 40.5557 48.379 39.4427L32.0292 35.6298C29.4078 35.924 19.6231 37.001 17 37.1694C17 41.466 17 51.7851 17 56C28.9534 55.7663 57.0703 51.6396 66.1947 45.6515Z" fill="white"/>
<path d="M66.1946 45.6515V38.5161C55.7513 30.6109 32.7613 30.4523 17.5131 23.6879C17.4902 23.714 17.5131 30.5978 17.5131 30.5978C29.0939 35.924 53.0514 36.0254 66.1946 45.6515Z" fill="white"/>
<path d="M21.2885 20.6725C21.2885 20.6725 18.6834 22.4098 17.5132 23.6879C19.8552 24.7257 22.4619 25.6327 25.0915 26.4123C26.9857 25.7504 32.1959 24.6472 33.3154 24.42C27.9712 23.6568 24.4966 22.1058 21.2885 20.6725Z" fill="white"/>
</g>
<defs>
<filter id="filter0_d_301_140" x="0" y="0" width="84" height="81" filterUnits="userSpaceOnUse" color-interpolation-filters="sRGB">
<feFlood flood-opacity="0" result="BackgroundImageFix"/>
<feColorMatrix in="SourceAlpha" type="matrix" values="0 0 0 0 0 0 0 0 0 0 0 0 0 0 0 0 0 0 127 0" result="hardAlpha"/>
<feOffset dy="4"/>
<feGaussianBlur stdDeviation="2"/>
<feComposite in2="hardAlpha" operator="out"/>
<feColorMatrix type="matrix" values="0 0 0 0 0 0 0 0 0 0 0 0 0 0 0 0 0 0 0.25 0"/>
<feBlend mode="normal" in2="BackgroundImageFix" result="effect1_dropShadow_301_140"/>
<feBlend mode="normal" in="SourceGraphic" in2="effect1_dropShadow_301_140" result="shape"/>
</filter>
</defs>
</svg>
